<?xml version="1.0" encoding="UTF-8" standalone="no"?>
<!DOCTYPE svg PUBLIC "-//W3C//DTD SVG 1.1//EN" "http://www.w3.org/Graphics/SVG/1.1/DTD/svg11.dtd">
<svg width="100%" height="100%" viewBox="0 0 96 97" version="1.1" xmlns="http://www.w3.org/2000/svg" xmlns:xlink="http://www.w3.org/1999/xlink" xml:space="preserve" xmlns:serif="http://www.serif.com/" style="fill-rule:evenodd;clip-rule:evenodd;stroke-linejoin:round;stroke-miterlimit:2;">
    <g transform="matrix(1,0,0,1,-16,-16)">
        <g transform="matrix(1.2,0,0,1.2,16,16)">
            <rect id="box-weiss" serif:id="box weiss" x="0" y="0" width="80" height="80" style="fill:white;"/>
            <g transform="matrix(0.97561,0,0,1.37627,1.95122,-2.75253)">
                <rect x="-2" y="2" width="82" height="24" style="fill:rgb(255,135,0);"/>
            </g>
            <g transform="matrix(0.97561,0,0,1.95707,1.9512,29.1163)">
                <rect x="-2" y="2" width="82" height="24" style="fill:white;"/>
            </g>
            <g transform="matrix(0.833334,0,0,0.833334,2.85243,65.9344)">
                <g id="ENV-share" serif:id="ENV share">
                    <g transform="matrix(56,0,0,56,1.85094,9.65643)">
                        <path d="M0.085,-0L0.085,-0.7L0.413,-0.7L0.413,-0.627L0.172,-0.627L0.172,-0.398L0.388,-0.398L0.388,-0.325L0.172,-0.325L0.172,-0.073L0.413,-0.073L0.413,-0L0.085,-0Z" style="fill-rule:nonzero;"/>
                    </g>
                    <g transform="matrix(56,0,0,56,28.3389,9.65643)">
                        <path d="M0.319,-0L0.166,-0.626L0.166,-0L0.085,-0L0.085,-0.7L0.227,-0.7L0.381,-0.074L0.381,-0.7L0.462,-0.7L0.462,-0L0.319,-0Z" style="fill-rule:nonzero;"/>
                    </g>
                    <g transform="matrix(56,0,0,56,58.9709,9.65643)">
                        <path d="M0.291,-0L0.172,-0L0.035,-0.7L0.123,-0.7L0.233,-0.088L0.352,-0.7L0.438,-0.7L0.291,-0Z" style="fill-rule:nonzero;"/>
                    </g>
                </g>
            </g>
            <g id="Reiecke">
                <g transform="matrix(1.36358,0,0,0.593221,-158.255,-65.7346)">
                    <path d="M151.63,119.238L168.617,138.203L151.63,157.167L151.63,119.238" style="fill:white;"/>
                </g>
                <g transform="matrix(-1.36358,0,0,0.593221,239.089,-65.7346)">
                    <path d="M151.63,119.238L168.617,138.203L151.63,157.167L151.63,119.238" style="fill:white;"/>
                </g>
            </g>
        </g>
    </g>
</svg>
