<?xml version="1.0" encoding="UTF-8" standalone="no"?>
<!DOCTYPE svg PUBLIC "-//W3C//DTD SVG 1.1//EN" "http://www.w3.org/Graphics/SVG/1.1/DTD/svg11.dtd">
<svg width="100%" height="100%" viewBox="0 0 96 97" version="1.1" xmlns="http://www.w3.org/2000/svg" xmlns:xlink="http://www.w3.org/1999/xlink" xml:space="preserve" xmlns:serif="http://www.serif.com/" style="fill-rule:evenodd;clip-rule:evenodd;stroke-linejoin:round;stroke-miterlimit:2;">
    <g>
        <rect id="box-weiss" serif:id="box weiss" x="0" y="0" width="96" height="96" style="fill:white;"/>
        <g>
            <rect x="0" y="0" width="96" height="39.637" style="fill:rgb(255,135,0);"/>
        </g>
        <g>
            <rect x="0" y="0" width="96" height="39.637" style="fill:rgb(242,175,13);"/>
        </g>
        <g>
            <rect x="0" y="39.637" width="96" height="56.364" style="fill:white;"/>
        </g>
        <g id="ENV-share" serif:id="ENV share">
            <path d="M7.825,86.999L7.825,49.666L26.918,49.666L26.918,55.426L15.131,55.426L15.131,64.866L25.585,64.866L25.585,70.572L15.131,70.572L15.131,81.239L26.918,81.239L26.918,86.999L7.825,86.999Z" style="fill-rule:nonzero;"/>
            <path d="M46.811,86.999L39.771,57.026L39.771,86.999L33.318,86.999L33.318,49.666L43.931,49.666L51.078,80.226L51.078,49.666L57.425,49.666L57.425,86.999L46.811,86.999Z" style="fill-rule:nonzero;"/>
            <path d="M81.211,86.999L69.958,86.999L62.491,49.666L70.171,49.666L75.771,81.772L81.585,49.666L88.731,49.666L81.211,86.999Z" style="fill-rule:nonzero;"/>
        </g>
        <path id="Pfeil" d="M32.1,21.834L32.1,31.368L9,19.818L32.1,8.268L32.1,17.802L63.9,17.802L63.9,8.268L87,19.818L63.9,31.368L63.9,21.834L32.1,21.834Z"/>
    </g>
</svg>
