<?xml version="1.0" encoding="UTF-8" standalone="no"?>
<!DOCTYPE svg PUBLIC "-//W3C//DTD SVG 1.1//EN" "http://www.w3.org/Graphics/SVG/1.1/DTD/svg11.dtd">
<svg width="100%" height="100%" viewBox="0 0 40 40" version="1.1" xmlns="http://www.w3.org/2000/svg" xmlns:xlink="http://www.w3.org/1999/xlink" xml:space="preserve" xmlns:serif="http://www.serif.com/" style="fill-rule:evenodd;clip-rule:evenodd;stroke-linejoin:round;stroke-miterlimit:2;">
    <g id="TYPO3-Logo" serif:id="TYPO3 Logo" transform="matrix(1,0,0,1,-21.4757,-33.61)">
        <g transform="matrix(1,0,0,1,1,13)">
            <path d="M50.57,48.1C50.025,48.265 49.459,48.346 48.89,48.34C43.89,48.34 36.44,30.7 36.44,24.84C36.44,22.67 36.95,21.95 37.67,21.34C31.5,22.06 24.09,24.34 21.67,27.2C21.066,28.191 20.777,29.342 20.84,30.5C20.84,39.66 30.62,60.5 37.52,60.5C40.71,60.5 46.09,55.25 50.52,48.15" style="fill:rgb(255,135,0);fill-rule:nonzero;"/>
        </g>
        <g transform="matrix(1,0,0,1,1,13)">
            <path d="M47.35,20.72C53.73,20.72 60.12,21.72 60.12,25.35C60.12,32.66 55.48,41.51 53.12,41.51C48.9,41.51 43.65,29.78 43.65,23.91C43.65,21.23 44.65,20.72 47.36,20.72" style="fill:rgb(255,135,0);fill-rule:nonzero;"/>
        </g>
    </g>
</svg>
