<?xml version="1.0" encoding="UTF-8" standalone="no"?>
<!DOCTYPE svg PUBLIC "-//W3C//DTD SVG 1.1//EN" "http://www.w3.org/Graphics/SVG/1.1/DTD/svg11.dtd">
<svg width="100%" height="100%" viewBox="0 0 130 19" version="1.1" xmlns="http://www.w3.org/2000/svg" xmlns:xlink="http://www.w3.org/1999/xlink" xml:space="preserve" xmlns:serif="http://www.serif.com/" style="fill-rule:evenodd;clip-rule:evenodd;stroke-linejoin:round;stroke-miterlimit:2;">
    <g id="Logo-ENVSwitcher-horizontal-NEGATIVE" serif:id="Logo ENVSwitcher horizontal NEGATIVE" transform="matrix(0.737514,0,0,0.737514,-496.083,-117.788)">
        <g transform="matrix(1,0,0,1,577.627,58.8081)">
            <g transform="matrix(28,0,0,28,128,123.461)">
                <path d="M0.07,-0L0.07,-0.7L0.428,-0.7L0.428,-0.592L0.207,-0.592L0.207,-0.415L0.403,-0.415L0.403,-0.308L0.207,-0.308L0.207,-0.108L0.428,-0.108L0.428,-0L0.07,-0Z" style="fill:white;fill-rule:nonzero;"/>
            </g>
            <g transform="matrix(28,0,0,28,141.384,123.461)">
                <path d="M0.323,-0L0.191,-0.562L0.191,-0L0.07,-0L0.07,-0.7L0.269,-0.7L0.403,-0.127L0.403,-0.7L0.522,-0.7L0.522,-0L0.323,-0Z" style="fill:white;fill-rule:nonzero;"/>
            </g>
            <g transform="matrix(28,0,0,28,157.96,123.461)">
                <path d="M0.376,-0L0.165,-0L0.025,-0.7L0.169,-0.7L0.274,-0.098L0.383,-0.7L0.517,-0.7L0.376,-0Z" style="fill:white;fill-rule:nonzero;"/>
            </g>
        </g>
        <g transform="matrix(1,0,0,1,624.723,58.8081)">
            <g transform="matrix(26.6667,0,0,26.6667,128,123.461)">
                <path d="M0.229,0.012C0.177,0.012 0.133,0.002 0.096,-0.018C0.059,-0.038 0.031,-0.068 0.011,-0.108L0.055,-0.139C0.074,-0.105 0.097,-0.08 0.125,-0.064C0.153,-0.047 0.188,-0.039 0.231,-0.039C0.272,-0.039 0.306,-0.047 0.333,-0.062C0.36,-0.077 0.381,-0.097 0.394,-0.122C0.407,-0.147 0.414,-0.176 0.414,-0.207C0.414,-0.24 0.406,-0.266 0.389,-0.285C0.372,-0.304 0.345,-0.318 0.309,-0.327L0.239,-0.346C0.195,-0.358 0.162,-0.378 0.139,-0.406C0.116,-0.433 0.104,-0.468 0.104,-0.51C0.104,-0.547 0.113,-0.581 0.13,-0.611C0.147,-0.641 0.172,-0.665 0.205,-0.683C0.238,-0.701 0.279,-0.71 0.327,-0.71C0.379,-0.71 0.421,-0.701 0.454,-0.682C0.487,-0.663 0.513,-0.638 0.532,-0.606L0.49,-0.573C0.473,-0.602 0.451,-0.623 0.425,-0.638C0.398,-0.652 0.364,-0.659 0.322,-0.659C0.288,-0.659 0.259,-0.653 0.235,-0.641C0.21,-0.629 0.192,-0.612 0.179,-0.591C0.166,-0.569 0.16,-0.543 0.16,-0.514C0.16,-0.482 0.168,-0.456 0.185,-0.438C0.201,-0.419 0.227,-0.404 0.262,-0.394L0.331,-0.375C0.376,-0.362 0.411,-0.343 0.435,-0.316C0.459,-0.289 0.471,-0.254 0.471,-0.209C0.471,-0.178 0.466,-0.15 0.456,-0.123C0.445,-0.096 0.43,-0.073 0.41,-0.053C0.389,-0.032 0.364,-0.016 0.334,-0.005C0.303,0.006 0.268,0.012 0.229,0.012Z" style="fill:white;fill-rule:nonzero;"/>
            </g>
            <g transform="matrix(26.6667,0,0,26.6667,142.267,123.461)">
                <path d="M0.103,-0L0.073,-0.512L0.126,-0.512L0.14,-0.228L0.147,-0.051L0.153,-0.051L0.229,-0.222L0.363,-0.512L0.425,-0.512L0.445,-0.226L0.453,-0.053L0.459,-0.053L0.534,-0.224L0.663,-0.512L0.717,-0.512L0.483,-0L0.413,-0L0.395,-0.272L0.386,-0.449L0.38,-0.449L0.302,-0.271L0.175,-0L0.103,-0Z" style="fill:white;fill-rule:nonzero;"/>
            </g>
            <g transform="matrix(26.6667,0,0,26.6667,160.8,123.461)">
                <path d="M0.198,-0.652C0.187,-0.652 0.178,-0.655 0.173,-0.66C0.168,-0.665 0.165,-0.672 0.165,-0.68C0.165,-0.682 0.165,-0.685 0.166,-0.688C0.167,-0.691 0.168,-0.696 0.169,-0.702C0.171,-0.711 0.175,-0.719 0.182,-0.725C0.189,-0.73 0.198,-0.733 0.211,-0.733C0.222,-0.733 0.231,-0.73 0.236,-0.725C0.241,-0.72 0.244,-0.713 0.244,-0.705C0.244,-0.703 0.244,-0.7 0.243,-0.697C0.242,-0.694 0.241,-0.689 0.24,-0.683C0.238,-0.674 0.234,-0.666 0.227,-0.661C0.22,-0.655 0.211,-0.652 0.198,-0.652ZM0.166,-0L0.093,-0C0.078,-0 0.067,-0.004 0.06,-0.011C0.052,-0.018 0.048,-0.027 0.048,-0.04C0.048,-0.043 0.048,-0.047 0.049,-0.051C0.05,-0.054 0.05,-0.058 0.051,-0.062L0.141,-0.512L0.195,-0.512L0.102,-0.048L0.175,-0.048L0.166,-0Z" style="fill:white;fill-rule:nonzero;"/>
            </g>
            <g transform="matrix(26.6667,0,0,26.6667,167.307,123.461)">
                <path d="M0.209,-0L0.109,-0C0.094,-0 0.082,-0.004 0.075,-0.011C0.067,-0.018 0.063,-0.027 0.063,-0.04C0.063,-0.043 0.063,-0.047 0.064,-0.051C0.065,-0.054 0.065,-0.058 0.066,-0.062L0.146,-0.464L0.067,-0.464L0.077,-0.512L0.126,-0.512C0.14,-0.512 0.15,-0.515 0.155,-0.521C0.16,-0.526 0.164,-0.536 0.166,-0.55L0.188,-0.655L0.239,-0.655L0.21,-0.512L0.318,-0.512L0.309,-0.464L0.201,-0.464L0.117,-0.048L0.218,-0.048L0.209,-0Z" style="fill:white;fill-rule:nonzero;"/>
            </g>
            <g transform="matrix(26.6667,0,0,26.6667,175.147,123.461)">
                <path d="M0.218,0.012C0.181,0.012 0.15,0.004 0.125,-0.013C0.1,-0.03 0.081,-0.053 0.068,-0.082C0.055,-0.111 0.049,-0.144 0.049,-0.182C0.049,-0.199 0.05,-0.217 0.052,-0.236C0.053,-0.255 0.056,-0.272 0.059,-0.289C0.068,-0.336 0.083,-0.377 0.104,-0.412C0.125,-0.447 0.151,-0.474 0.182,-0.494C0.213,-0.514 0.249,-0.524 0.29,-0.524C0.332,-0.524 0.366,-0.513 0.392,-0.491C0.418,-0.469 0.435,-0.441 0.444,-0.406L0.398,-0.386C0.391,-0.416 0.378,-0.439 0.359,-0.454C0.34,-0.468 0.316,-0.476 0.287,-0.476C0.245,-0.476 0.21,-0.462 0.182,-0.433C0.153,-0.404 0.134,-0.363 0.123,-0.312L0.107,-0.232C0.106,-0.223 0.105,-0.213 0.104,-0.204C0.102,-0.195 0.102,-0.186 0.102,-0.177C0.102,-0.149 0.107,-0.125 0.116,-0.104C0.125,-0.083 0.138,-0.066 0.156,-0.054C0.174,-0.042 0.196,-0.036 0.223,-0.036C0.255,-0.036 0.282,-0.045 0.305,-0.064C0.328,-0.082 0.348,-0.109 0.366,-0.144L0.409,-0.122C0.388,-0.08 0.362,-0.047 0.331,-0.024C0.3,0 0.262,0.012 0.218,0.012Z" style="fill:white;fill-rule:nonzero;"/>
            </g>
            <g transform="matrix(26.6667,0,0,26.6667,187.44,123.461)">
                <path d="M0.038,-0L0.186,-0.74L0.241,-0.74L0.174,-0.409L0.181,-0.409C0.198,-0.448 0.219,-0.476 0.245,-0.496C0.271,-0.515 0.303,-0.524 0.34,-0.524C0.381,-0.524 0.411,-0.512 0.432,-0.489C0.453,-0.465 0.463,-0.432 0.463,-0.39C0.463,-0.38 0.462,-0.369 0.461,-0.357C0.46,-0.345 0.458,-0.333 0.455,-0.32L0.401,-0.048L0.474,-0.048L0.464,-0L0.389,-0C0.376,-0 0.366,-0.003 0.358,-0.01C0.35,-0.016 0.346,-0.026 0.346,-0.039C0.346,-0.042 0.346,-0.046 0.347,-0.05C0.348,-0.053 0.348,-0.057 0.349,-0.06L0.401,-0.32C0.403,-0.331 0.405,-0.343 0.406,-0.355C0.407,-0.366 0.407,-0.376 0.407,-0.383C0.407,-0.414 0.4,-0.438 0.386,-0.453C0.371,-0.468 0.35,-0.475 0.321,-0.475C0.3,-0.475 0.281,-0.471 0.264,-0.464C0.246,-0.456 0.229,-0.443 0.214,-0.425C0.201,-0.41 0.188,-0.391 0.177,-0.369C0.165,-0.346 0.157,-0.323 0.152,-0.298L0.093,-0L0.038,-0Z" style="fill:white;fill-rule:nonzero;"/>
            </g>
            <g transform="matrix(26.6667,0,0,26.6667,201.6,123.461)">
                <path d="M0.226,0.012C0.169,0.012 0.125,-0.005 0.095,-0.039C0.064,-0.073 0.049,-0.122 0.049,-0.186C0.049,-0.202 0.05,-0.219 0.052,-0.236C0.053,-0.253 0.056,-0.269 0.059,-0.285C0.068,-0.332 0.084,-0.374 0.107,-0.41C0.129,-0.446 0.157,-0.474 0.19,-0.494C0.223,-0.514 0.26,-0.524 0.301,-0.524C0.323,-0.524 0.343,-0.521 0.362,-0.516C0.381,-0.51 0.397,-0.501 0.411,-0.491C0.425,-0.48 0.436,-0.466 0.444,-0.45C0.451,-0.433 0.455,-0.414 0.455,-0.393C0.455,-0.374 0.451,-0.356 0.444,-0.339C0.437,-0.322 0.425,-0.307 0.409,-0.294C0.392,-0.28 0.371,-0.268 0.344,-0.259C0.317,-0.249 0.284,-0.241 0.245,-0.236C0.206,-0.23 0.16,-0.227 0.107,-0.226C0.106,-0.218 0.105,-0.21 0.104,-0.201C0.103,-0.192 0.103,-0.185 0.103,-0.18C0.103,-0.131 0.114,-0.095 0.135,-0.072C0.156,-0.048 0.188,-0.036 0.229,-0.036C0.265,-0.036 0.296,-0.045 0.323,-0.063C0.35,-0.081 0.372,-0.105 0.391,-0.136L0.428,-0.106C0.402,-0.065 0.372,-0.035 0.338,-0.017C0.304,0.003 0.267,0.012 0.226,0.012ZM0.295,-0.477C0.265,-0.477 0.238,-0.47 0.214,-0.455C0.19,-0.44 0.17,-0.42 0.154,-0.394C0.138,-0.367 0.127,-0.336 0.12,-0.3L0.114,-0.269C0.173,-0.271 0.221,-0.275 0.258,-0.282C0.295,-0.288 0.324,-0.296 0.345,-0.307C0.365,-0.317 0.379,-0.329 0.388,-0.343C0.396,-0.357 0.4,-0.373 0.4,-0.391C0.4,-0.421 0.391,-0.443 0.372,-0.457C0.353,-0.47 0.327,-0.477 0.295,-0.477Z" style="fill:white;fill-rule:nonzero;"/>
            </g>
            <g transform="matrix(26.6667,0,0,26.6667,214.507,123.461)">
                <path d="M0.092,-0L0.038,-0L0.141,-0.512L0.195,-0.512L0.173,-0.405L0.18,-0.405C0.189,-0.426 0.201,-0.445 0.214,-0.461C0.227,-0.477 0.244,-0.49 0.263,-0.499C0.282,-0.507 0.305,-0.512 0.331,-0.512L0.363,-0.512L0.352,-0.457L0.317,-0.457C0.287,-0.457 0.261,-0.45 0.238,-0.437C0.215,-0.423 0.197,-0.404 0.183,-0.381C0.169,-0.358 0.159,-0.331 0.153,-0.302L0.092,-0Z" style="fill:white;fill-rule:nonzero;"/>
            </g>
        </g>
        <g id="TYPO3-Logo" serif:id="TYPO3 Logo" transform="matrix(0.647915,0,0,0.647915,644.222,137.862)">
            <g transform="matrix(1,0,0,1,23.0324,13)">
                <path d="M50.57,48.1C50.025,48.265 49.459,48.346 48.89,48.34C43.89,48.34 36.44,30.7 36.44,24.84C36.44,22.67 36.95,21.95 37.67,21.34C31.5,22.06 24.09,24.34 21.67,27.2C21.066,28.191 20.777,29.342 20.84,30.5C20.84,39.66 30.62,60.5 37.52,60.5C40.71,60.5 46.09,55.25 50.52,48.15" style="fill:rgb(255,135,0);fill-rule:nonzero;"/>
            </g>
            <g transform="matrix(1,0,0,1,23.0324,13)">
                <path d="M47.35,20.72C53.73,20.72 60.12,21.72 60.12,25.35C60.12,32.66 55.48,41.51 53.12,41.51C48.9,41.51 43.65,29.78 43.65,23.91C43.65,21.23 44.65,20.72 47.36,20.72" style="fill:rgb(255,135,0);fill-rule:nonzero;"/>
            </g>
        </g>
    </g>
</svg>
