<?xml version="1.0" encoding="UTF-8" standalone="no"?>
<!DOCTYPE svg PUBLIC "-//W3C//DTD SVG 1.1//EN" "http://www.w3.org/Graphics/SVG/1.1/DTD/svg11.dtd">
<svg width="100%" height="100%" viewBox="0 0 50 64" version="1.1" xmlns="http://www.w3.org/2000/svg" xmlns:xlink="http://www.w3.org/1999/xlink" xml:space="preserve" xmlns:serif="http://www.serif.com/" style="fill-rule:evenodd;clip-rule:evenodd;stroke-linejoin:round;stroke-miterlimit:1.5;">
    <g id="card-default" serif:id="card default">
        <g transform="matrix(1.16279,0,0,1.16279,-75.5814,-122.093)">
            <g id="live">
                <rect x="65" y="105" width="43" height="54.74" style="fill:rgb(230,230,230);"/>
            </g>
        </g>
        <g transform="matrix(1.16279,-4.64621e-23,4.64621e-23,1.16279,0,5.68434e-14)">
            <path d="M0,0L18,0L0,18L0,0Z" style="fill:rgb(242,175,13);fill-rule:nonzero;"/>
        </g>
    </g>
    <g transform="matrix(1,0,0,1,-0.387291,-0.128009)">
        <path d="M9.677,25.028L41.098,25.028" style="fill:none;"/>
        <g transform="matrix(1,-0,-0,1,0.387291,0.128009)">
            <path d="M32.71,20.9L40.71,24.9L32.71,28.9L32.71,20.9Z"/>
            <path d="M9.29,24.9L34.31,24.9" style="fill:none;stroke:black;stroke-width:2.67px;"/>
        </g>
    </g>
    <g transform="matrix(1,0,0,1,-0.387291,13.1042)">
        <path d="M9.677,25.028L41.098,25.028" style="fill:none;"/>
        <g transform="matrix(1,-0,-0,1,0.387291,-13.1042)">
            <path d="M32.71,34.132L40.71,38.132L32.71,42.132L32.71,34.132Z"/>
            <path d="M9.29,38.132L34.31,38.132" style="fill:none;stroke:black;stroke-width:2.67px;"/>
        </g>
    </g>
    <g transform="matrix(1,0,0,1,-0.387291,26.3364)">
        <path d="M9.677,25.028L41.098,25.028" style="fill:none;"/>
        <g transform="matrix(1,-0,-0,1,0.387291,-26.3364)">
            <path d="M32.71,47.364L40.71,51.364L32.71,55.364L32.71,47.364Z"/>
            <path d="M9.29,51.364L34.31,51.364" style="fill:none;stroke:black;stroke-width:2.67px;"/>
        </g>
    </g>
</svg>
